<svg width="149" height="119" viewBox="0 0 149 119" fill="none" xmlns="http://www.w3.org/2000/svg">
<path d="M50.9263 50.2035H97.223C99.7809 50.2035 101.853 48.5394 101.853 46.4848V42.7661C101.853 40.7115 99.7809 39.0474 97.223 39.0474H50.9263C48.3684 39.0474 46.2967 40.7115 46.2967 42.7661V46.4848C46.2967 48.5394 48.3684 50.2035 50.9263 50.2035ZM46.2967 68.7972C46.2967 70.8518 48.3684 72.5159 50.9263 72.5159H97.223C99.7809 72.5159 101.853 70.8518 101.853 68.7972V65.0784C101.853 63.0238 99.7809 61.3597 97.223 61.3597H50.9263C48.3684 61.3597 46.2967 63.0238 46.2967 65.0784V68.7972ZM74.0747 96.9503C69.3235 96.9503 64.5723 95.7742 60.5155 93.4198L0 58.3057V107.844C0 114.005 6.21822 119 13.889 119H134.26C141.931 119 148.149 114.005 148.149 107.844V58.3057L87.6338 93.4198C83.577 95.7719 78.8259 96.9503 74.0747 96.9503ZM142.828 37.8736C140.267 36.2606 137.84 34.7429 134.26 32.5721V22.3131C134.26 16.1516 128.042 11.1569 120.371 11.1569H97.9319C97.0523 10.6456 96.2334 10.1668 95.3161 9.63222C90.4521 6.78042 80.7877 -0.0806301 74.0747 0.000717103C67.3616 -0.0806301 57.7001 6.78042 52.8332 9.63222C51.9159 10.1668 51.097 10.6456 50.2174 11.1569H27.778C20.1072 11.1569 13.889 16.1516 13.889 22.3131V32.5721C10.3097 34.7406 7.88201 36.2606 5.32122 37.8736C3.66368 38.917 2.32327 40.2496 1.40138 41.7704C0.479497 43.2913 0.000285247 44.9606 0 46.6522L0 49.1274L27.778 65.2458V22.3131H120.371V65.2458L148.149 49.1274V46.6522C148.149 43.2263 146.187 39.9887 142.828 37.8736Z" fill="#9A9A9A"/>
</svg>
