<svg width="126" height="107" viewBox="0 0 126 107" fill="none" xmlns="http://www.w3.org/2000/svg">
<path d="M78.7983 50.5953L66.5682 74.3346C65.0917 77.2244 60.8099 77.1288 59.4565 74.1913L45.4545 44.0276L38.0721 61.1514H14.9161L59.8256 105.692C61.5727 107.436 64.4026 107.436 66.1498 105.692L111.084 61.1514H84.2367L78.7983 50.5953ZM116.572 10.0187L115.981 9.42168C103.308 -3.14056 82.5633 -3.14056 69.8656 9.42168L63 16.2521L56.1344 9.44557C43.4613 -3.14056 22.6922 -3.14056 10.0191 9.44557L9.4285 10.0187C-2.55557 21.9123 -3.07234 40.8512 7.63212 53.509H32.8307L41.6649 32.9222C42.9937 29.8413 47.4724 29.7697 48.8996 32.8266L63.2215 63.7068L75.2794 40.3258C76.7312 37.5076 80.8654 37.5076 82.3172 40.3258L89.109 53.509H118.368C129.072 40.8512 128.556 21.9123 116.572 10.0187Z" fill="#9A9A9A"/>
</svg>
