<svg xmlns="http://www.w3.org/2000/svg" xmlns:xlink="http://www.w3.org/1999/xlink" width="500" zoomAndPan="magnify" viewBox="0 0 375 374.999991" height="500" preserveAspectRatio="xMidYMid meet" version="1.0"><defs><g/><clipPath id="c5e741a9c3"><path d="M 71.546875 0 L 303.296875 0 L 303.296875 363.75 L 71.546875 363.75 Z M 71.546875 0 " clip-rule="nonzero"/></clipPath><clipPath id="55c3030d48"><path d="M 72 191 L 303.296875 191 L 303.296875 363.75 L 72 363.75 Z M 72 191 " clip-rule="nonzero"/></clipPath></defs><g clip-path="url(#c5e741a9c3)"><path fill="#ce0000" d="M 303.375 247.917969 C 303.375 311.886719 251.519531 363.742188 187.550781 363.742188 C 123.585938 363.742188 71.726562 311.886719 71.726562 247.917969 C 71.726562 183.953125 187.457031 -0.0351562 187.550781 0.136719 C 187.78125 0.59375 303.375 183.953125 303.375 247.917969 " fill-opacity="1" fill-rule="nonzero"/></g><g clip-path="url(#55c3030d48)"><path fill="#af0000" d="M 288.84375 191.535156 C 290.515625 198.902344 291.464844 205.578125 291.464844 211.261719 C 291.464844 275.230469 239.605469 327.089844 175.636719 327.089844 C 130.910156 327.089844 92.175781 301.691406 72.878906 264.570312 C 80.976562 320.625 129.074219 363.742188 187.367188 363.742188 C 251.335938 363.742188 303.195312 311.886719 303.195312 247.917969 C 303.195312 233.839844 297.589844 213.960938 288.84375 191.535156 " fill-opacity="1" fill-rule="nonzero"/></g><g fill="#ffffff" fill-opacity="1"><g transform="translate(105.461606, 281.645762)"><g><path d="M 41.984375 -125.308594 L -5.609375 0 L 22.273438 0 L 31.886719 -26.921875 L 62.332031 -26.921875 L 64.738281 0 L 92.621094 0 L 77.71875 -125.308594 Z M 56.246094 -96.304688 L 60.25 -49.355469 L 39.738281 -49.355469 Z M 56.246094 -96.304688 "/></g></g></g><g fill="#ffffff" fill-opacity="1"><g transform="translate(208.175654, 281.645762)"><g><path d="M 4.328125 -45.027344 L 48.074219 -45.027344 L 50.957031 -67.140625 L 7.210938 -67.140625 Z M 4.328125 -45.027344 "/></g></g></g></svg>