<svg xmlns="http://www.w3.org/2000/svg" xmlns:xlink="http://www.w3.org/1999/xlink" width="500" zoomAndPan="magnify" viewBox="0 0 375 374.999991" height="500" preserveAspectRatio="xMidYMid meet" version="1.0"><defs><clipPath id="3ed76edbbe"><path d="M 4.269531 4.269531 L 371 4.269531 L 371 371 L 4.269531 371 Z M 4.269531 4.269531 " clip-rule="nonzero"/></clipPath><clipPath id="4beda0073c"><path d="M 136.652344 103.210938 L 370.726562 103.210938 L 370.726562 370.726562 L 136.652344 370.726562 Z M 136.652344 103.210938 " clip-rule="nonzero"/></clipPath><clipPath id="ef7ef18f48"><path d="M 370.726562 187.496094 C 370.726562 288.691406 288.691406 370.726562 187.496094 370.726562 C 86.300781 370.726562 4.269531 288.691406 4.269531 187.496094 C 4.269531 86.300781 86.300781 4.269531 187.496094 4.269531 C 288.691406 4.269531 370.726562 86.300781 370.726562 187.496094 Z M 370.726562 187.496094 " clip-rule="nonzero"/></clipPath></defs><g clip-path="url(#3ed76edbbe)"><path fill="#39b54a" d="M 370.726562 187.496094 C 370.726562 288.691406 288.691406 370.726562 187.496094 370.726562 C 86.300781 370.726562 4.269531 288.691406 4.269531 187.496094 C 4.269531 86.300781 86.300781 4.269531 187.496094 4.269531 C 288.691406 4.269531 370.726562 86.300781 370.726562 187.496094 " fill-opacity="1" fill-rule="nonzero"/></g><g clip-path="url(#4beda0073c)"><g clip-path="url(#ef7ef18f48)"><path fill="#2e8f3c" d="M 452.265625 251.390625 L 304.351562 103.472656 L 136.753906 271.980469 L 270.9375 406.164062 L 452.265625 251.390625 " fill-opacity="1" fill-rule="nonzero"/></g></g><path fill="#ffffff" d="M 304.351562 103.472656 C 299.457031 98.578125 292.949219 95.882812 286.027344 95.882812 C 279.109375 95.882812 272.601562 98.578125 267.707031 103.472656 L 154.640625 216.535156 L 107.289062 169.183594 C 102.394531 164.289062 95.886719 161.59375 88.964844 161.59375 C 82.042969 161.59375 75.539062 164.289062 70.644531 169.183594 C 60.542969 179.285156 60.542969 195.722656 70.644531 205.828125 L 136.078125 271.257812 C 136.148438 271.335938 136.226562 271.414062 136.316406 271.507812 C 137.558594 272.75 138.929688 273.867188 140.386719 274.828125 C 144.621094 277.628906 149.5625 279.109375 154.660156 279.109375 C 161.582031 279.109375 168.089844 276.414062 172.976562 271.527344 C 173.21875 271.289062 298.996094 145.46875 304.351562 140.113281 C 309.242188 135.222656 311.9375 128.714844 311.9375 121.792969 C 311.9375 114.871094 309.242188 108.363281 304.351562 103.472656 " fill-opacity="1" fill-rule="nonzero"/></svg>