<svg xmlns="http://www.w3.org/2000/svg" xmlns:xlink="http://www.w3.org/1999/xlink" width="500" zoomAndPan="magnify" viewBox="0 0 375 374.999991" height="500" preserveAspectRatio="xMidYMid meet" version="1.0"><defs><clipPath id="5ada6e88d7"><path d="M 5.183594 5.183594 L 370.433594 5.183594 L 370.433594 370.433594 L 5.183594 370.433594 Z M 5.183594 5.183594 " clip-rule="nonzero"/></clipPath><clipPath id="0348500e79"><path d="M 119 118 L 370.433594 118 L 370.433594 370.433594 L 119 370.433594 Z M 119 118 " clip-rule="nonzero"/></clipPath></defs><g clip-path="url(#5ada6e88d7)"><path fill="#ce0000" d="M 187.808594 5.214844 C 86.96875 5.214844 5.214844 86.96875 5.214844 187.808594 C 5.214844 288.648438 86.96875 370.398438 187.808594 370.398438 C 288.648438 370.398438 370.398438 288.648438 370.398438 187.808594 C 370.398438 86.96875 288.648438 5.214844 187.808594 5.214844 " fill-opacity="1" fill-rule="nonzero"/></g><g clip-path="url(#0348500e79)"><path fill="#af0000" d="M 195.992188 370.21875 L 119.308594 293.535156 L 293.59375 118.988281 L 370.230469 195.628906 C 366.246094 290.132812 290.445312 366.050781 195.992188 370.21875 " fill-opacity="1" fill-rule="nonzero"/></g><path fill="#ffffff" d="M 225.03125 187.808594 L 293.59375 119.246094 L 293.59375 118.988281 L 256.691406 82.082031 L 256.433594 82.082031 L 187.886719 150.632812 L 187.871094 150.644531 L 119.308594 82.082031 L 119.054688 82.082031 L 82.144531 118.988281 L 82.144531 119.246094 L 150.707031 187.808594 L 82.144531 256.371094 L 82.144531 256.628906 L 119.054688 293.535156 L 119.308594 293.535156 L 187.871094 224.972656 L 187.886719 224.980469 L 256.433594 293.535156 L 256.691406 293.535156 L 293.59375 256.628906 L 293.59375 256.371094 L 225.03125 187.808594 " fill-opacity="1" fill-rule="nonzero"/></svg>