<svg width="105" height="134" viewBox="0 0 105 134" fill="none" xmlns="http://www.w3.org/2000/svg">
<path d="M91.7626 16.75H69.9144C69.9144 7.51133 62.0763 0 52.4358 0C42.7952 0 34.9572 7.51133 34.9572 16.75H13.1089C5.87171 16.75 0 22.377 0 29.3125V121.438C0 128.373 5.87171 134 13.1089 134H91.7626C98.9998 134 104.872 128.373 104.872 121.438V29.3125C104.872 22.377 98.9998 16.75 91.7626 16.75ZM26.2179 110.969C22.5856 110.969 19.6634 108.168 19.6634 104.688C19.6634 101.207 22.5856 98.4062 26.2179 98.4062C29.8502 98.4062 32.7724 101.207 32.7724 104.688C32.7724 108.168 29.8502 110.969 26.2179 110.969ZM26.2179 85.8438C22.5856 85.8438 19.6634 83.0434 19.6634 79.5625C19.6634 76.0816 22.5856 73.2812 26.2179 73.2812C29.8502 73.2812 32.7724 76.0816 32.7724 79.5625C32.7724 83.0434 29.8502 85.8438 26.2179 85.8438ZM26.2179 60.7188C22.5856 60.7188 19.6634 57.9184 19.6634 54.4375C19.6634 50.9566 22.5856 48.1562 26.2179 48.1562C29.8502 48.1562 32.7724 50.9566 32.7724 54.4375C32.7724 57.9184 29.8502 60.7188 26.2179 60.7188ZM52.4358 10.4688C56.068 10.4688 58.9902 13.2691 58.9902 16.75C58.9902 20.2309 56.068 23.0312 52.4358 23.0312C48.8035 23.0312 45.8813 20.2309 45.8813 16.75C45.8813 13.2691 48.8035 10.4688 52.4358 10.4688ZM87.3929 106.781C87.3929 107.933 86.4098 108.875 85.2081 108.875H45.8813C44.6796 108.875 43.6965 107.933 43.6965 106.781V102.594C43.6965 101.442 44.6796 100.5 45.8813 100.5H85.2081C86.4098 100.5 87.3929 101.442 87.3929 102.594V106.781ZM87.3929 81.6562C87.3929 82.8078 86.4098 83.75 85.2081 83.75H45.8813C44.6796 83.75 43.6965 82.8078 43.6965 81.6562V77.4688C43.6965 76.3172 44.6796 75.375 45.8813 75.375H85.2081C86.4098 75.375 87.3929 76.3172 87.3929 77.4688V81.6562ZM87.3929 56.5312C87.3929 57.6828 86.4098 58.625 85.2081 58.625H45.8813C44.6796 58.625 43.6965 57.6828 43.6965 56.5312V52.3438C43.6965 51.1922 44.6796 50.25 45.8813 50.25H85.2081C86.4098 50.25 87.3929 51.1922 87.3929 52.3438V56.5312Z" fill="#A19779"/>
</svg>
