<svg xmlns="http://www.w3.org/2000/svg" xmlns:xlink="http://www.w3.org/1999/xlink" width="500" zoomAndPan="magnify" viewBox="0 0 375 374.999991" height="500" preserveAspectRatio="xMidYMid meet" version="1.0"><defs><g/><clipPath id="dea76f0039"><path d="M 71.546875 0 L 303.296875 0 L 303.296875 363.75 L 71.546875 363.75 Z M 71.546875 0 " clip-rule="nonzero"/></clipPath><clipPath id="b979cc3f23"><path d="M 72 191 L 303.296875 191 L 303.296875 363.75 L 72 363.75 Z M 72 191 " clip-rule="nonzero"/></clipPath></defs><g clip-path="url(#dea76f0039)"><path fill="#ce0000" d="M 303.375 247.917969 C 303.375 311.886719 251.519531 363.742188 187.550781 363.742188 C 123.585938 363.742188 71.726562 311.886719 71.726562 247.917969 C 71.726562 183.953125 187.457031 -0.0351562 187.550781 0.136719 C 187.78125 0.59375 303.375 183.953125 303.375 247.917969 " fill-opacity="1" fill-rule="nonzero"/></g><g clip-path="url(#b979cc3f23)"><path fill="#af0000" d="M 288.84375 191.535156 C 290.515625 198.902344 291.464844 205.578125 291.464844 211.261719 C 291.464844 275.230469 239.605469 327.089844 175.636719 327.089844 C 130.910156 327.089844 92.175781 301.691406 72.878906 264.570312 C 80.976562 320.625 129.074219 363.742188 187.367188 363.742188 C 251.335938 363.742188 303.195312 311.886719 303.195312 247.917969 C 303.195312 233.839844 297.589844 213.960938 288.84375 191.535156 " fill-opacity="1" fill-rule="nonzero"/></g><g fill="#ffffff" fill-opacity="1"><g transform="translate(87.913307, 263.680248)"><g><path d="M 27.128906 -80.976562 L -3.625 0 L 14.394531 0 L 20.605469 -17.394531 L 40.28125 -17.394531 L 41.835938 0 L 59.851562 0 L 50.222656 -80.976562 Z M 36.347656 -62.234375 L 38.933594 -31.894531 L 25.679688 -31.894531 Z M 36.347656 -62.234375 "/></g></g></g><g fill="#ffffff" fill-opacity="1"><g transform="translate(154.288346, 263.680248)"><g><path d="M 11.285156 -80.769531 L 0.726562 0 L 28.164062 0 C 41.835938 0 55.503906 -2.382812 58.089844 -22.160156 L 58.402344 -24.542969 C 59.542969 -33.445312 56.640625 -39.554688 50.222656 -41.730469 C 56.433594 -43.90625 59.542969 -48.046875 60.578125 -56.125 L 60.886719 -58.503906 C 63.269531 -76.835938 50.636719 -80.769531 38.003906 -80.769531 Z M 33.34375 -33.964844 C 38.519531 -33.964844 42.457031 -31.6875 41.523438 -24.644531 L 41.316406 -23.089844 C 40.382812 -15.738281 35.621094 -14.496094 30.445312 -14.496094 L 19.363281 -14.496094 L 21.847656 -33.964844 Z M 36.035156 -66.273438 C 40.488281 -66.273438 44.734375 -64.40625 43.90625 -58.089844 L 43.699219 -56.539062 C 42.871094 -49.910156 37.796875 -48.566406 33.757812 -48.566406 L 23.816406 -48.566406 L 26.199219 -66.273438 Z M 36.035156 -66.273438 "/></g></g></g><g fill="#ffffff" fill-opacity="1"><g transform="translate(219.627899, 263.680248)"><g><path d="M 27.441406 -67.101562 L 24.851562 -47.632812 L 5.382812 -47.632812 L 3.519531 -33.136719 L 22.988281 -33.136719 L 20.398438 -13.667969 L 34.894531 -13.667969 L 37.484375 -33.136719 L 56.953125 -33.136719 L 58.816406 -47.632812 L 39.347656 -47.632812 L 41.9375 -67.101562 Z M 27.441406 -67.101562 "/></g></g></g></svg>