<svg xmlns="http://www.w3.org/2000/svg" xmlns:xlink="http://www.w3.org/1999/xlink" width="500" zoomAndPan="magnify" viewBox="0 0 375 374.999991" height="500" preserveAspectRatio="xMidYMid meet" version="1.0"><defs><g/><clipPath id="666e919da1"><path d="M 71.546875 0 L 303.296875 0 L 303.296875 363.75 L 71.546875 363.75 Z M 71.546875 0 " clip-rule="nonzero"/></clipPath><clipPath id="cddf55c18b"><path d="M 72 191 L 303.296875 191 L 303.296875 363.75 L 72 363.75 Z M 72 191 " clip-rule="nonzero"/></clipPath></defs><g clip-path="url(#666e919da1)"><path fill="#ce0000" d="M 303.375 247.917969 C 303.375 311.886719 251.519531 363.742188 187.550781 363.742188 C 123.585938 363.742188 71.726562 311.886719 71.726562 247.917969 C 71.726562 183.953125 187.457031 -0.0351562 187.550781 0.136719 C 187.78125 0.59375 303.375 183.953125 303.375 247.917969 " fill-opacity="1" fill-rule="nonzero"/></g><g clip-path="url(#cddf55c18b)"><path fill="#af0000" d="M 288.84375 191.535156 C 290.515625 198.902344 291.464844 205.578125 291.464844 211.261719 C 291.464844 275.230469 239.605469 327.089844 175.636719 327.089844 C 130.910156 327.089844 92.175781 301.691406 72.878906 264.570312 C 80.976562 320.625 129.074219 363.742188 187.367188 363.742188 C 251.335938 363.742188 303.195312 311.886719 303.195312 247.917969 C 303.195312 233.839844 297.589844 213.960938 288.84375 191.535156 " fill-opacity="1" fill-rule="nonzero"/></g><g fill="#ffffff" fill-opacity="1"><g transform="translate(105.461606, 281.645779)"><g><path d="M 17.464844 -124.988281 L 1.121094 0 L 43.585938 0 C 64.738281 0 85.890625 -3.6875 89.894531 -34.292969 L 90.375 -37.976562 C 92.140625 -51.757812 87.652344 -61.210938 77.71875 -64.578125 C 87.332031 -67.941406 92.140625 -74.351562 93.742188 -86.851562 L 94.222656 -90.535156 C 97.90625 -118.898438 78.359375 -124.988281 58.808594 -124.988281 Z M 51.597656 -52.558594 C 59.609375 -52.558594 65.699219 -49.035156 64.257812 -38.136719 L 63.9375 -35.734375 C 62.496094 -24.355469 55.125 -22.433594 47.109375 -22.433594 L 29.964844 -22.433594 L 33.8125 -52.558594 Z M 55.765625 -102.554688 C 62.65625 -102.554688 69.222656 -99.671875 67.941406 -89.894531 L 67.621094 -87.492188 C 66.339844 -77.238281 58.488281 -75.152344 52.238281 -75.152344 L 36.855469 -75.152344 L 40.542969 -102.554688 Z M 55.765625 -102.554688 "/></g></g></g><g fill="#ffffff" fill-opacity="1"><g transform="translate(206.573259, 281.645779)"><g><path d="M 4.328125 -45.027344 L 48.074219 -45.027344 L 50.957031 -67.140625 L 7.210938 -67.140625 Z M 4.328125 -45.027344 "/></g></g></g></svg>