<svg width="125" height="125" viewBox="0 0 125 125" fill="none" xmlns="http://www.w3.org/2000/svg">
<path d="M121.652 39.0625H3.34821C1.49916 39.0625 0 37.7507 0 36.1328V27.3438C0 20.8716 5.99609 15.625 13.3929 15.625H26.7857V2.92969C26.7857 1.31177 28.2849 0 30.1339 0H41.2946C43.1437 0 44.6429 1.31177 44.6429 2.92969V15.625H80.3571V2.92969C80.3571 1.31177 81.8563 0 83.7054 0H94.8661C96.7151 0 98.2143 1.31177 98.2143 2.92969V15.625H111.607C119.004 15.625 125 20.8716 125 27.3438V36.1328C125 37.7507 123.501 39.0625 121.652 39.0625ZM3.34821 46.875H121.652C123.501 46.875 125 48.1868 125 49.8047V113.281C125 119.753 119.004 125 111.607 125H13.3929C5.99609 125 0 119.753 0 113.281V49.8047C0 48.1868 1.49916 46.875 3.34821 46.875ZM96.3438 70.2996L88.4841 63.3665C87.1819 62.2178 85.062 62.2102 83.7492 63.3498L54.1629 89.0295L41.3337 77.7131C40.0315 76.5645 37.9113 76.5569 36.5985 77.6965L28.6752 84.574C27.3624 85.7134 27.3538 87.5684 28.6563 88.717L51.7034 109.046C53.0056 110.195 55.1256 110.203 56.4383 109.063L96.3248 74.4426C97.6376 73.3032 97.6462 71.4482 96.3438 70.2996Z" fill="#FF6666"/>
</svg>
