<svg xmlns="http://www.w3.org/2000/svg" xmlns:xlink="http://www.w3.org/1999/xlink" width="500" zoomAndPan="magnify" viewBox="0 0 375 374.999991" height="500" preserveAspectRatio="xMidYMid meet" version="1.0"><defs><g/><clipPath id="b2bb83e016"><path d="M 71.546875 0 L 303.296875 0 L 303.296875 363.75 L 71.546875 363.75 Z M 71.546875 0 " clip-rule="nonzero"/></clipPath><clipPath id="2787b67831"><path d="M 72 191 L 303.296875 191 L 303.296875 363.75 L 72 363.75 Z M 72 191 " clip-rule="nonzero"/></clipPath></defs><g clip-path="url(#b2bb83e016)"><path fill="#ce0000" d="M 303.375 247.917969 C 303.375 311.886719 251.519531 363.742188 187.550781 363.742188 C 123.585938 363.742188 71.726562 311.886719 71.726562 247.917969 C 71.726562 183.953125 187.457031 -0.0351562 187.550781 0.136719 C 187.78125 0.59375 303.375 183.953125 303.375 247.917969 " fill-opacity="1" fill-rule="nonzero"/></g><g clip-path="url(#2787b67831)"><path fill="#af0000" d="M 288.84375 191.535156 C 290.515625 198.902344 291.464844 205.578125 291.464844 211.261719 C 291.464844 275.230469 239.605469 327.089844 175.636719 327.089844 C 130.910156 327.089844 92.175781 301.691406 72.878906 264.570312 C 80.976562 320.625 129.074219 363.742188 187.367188 363.742188 C 251.335938 363.742188 303.195312 311.886719 303.195312 247.917969 C 303.195312 233.839844 297.589844 213.960938 288.84375 191.535156 " fill-opacity="1" fill-rule="nonzero"/></g><g fill="#ffffff" fill-opacity="1"><g transform="translate(146.480796, 281.645762)"><g><path d="M 46.46875 -104.796875 C 53.199219 -104.796875 55.765625 -101.433594 55.765625 -95.824219 C 55.765625 -78.519531 27.082031 -65.539062 27.082031 -36.535156 L 45.027344 -36.535156 C 49.195312 -63.9375 81.722656 -67.140625 81.722656 -100.152344 C 81.722656 -114.894531 74.351562 -127.070312 47.269531 -127.070312 C 22.113281 -127.070312 10.253906 -113.128906 6.730469 -86.371094 L 6.25 -82.683594 L 31.726562 -82.683594 C 33.8125 -98.386719 37.65625 -104.796875 46.46875 -104.796875 Z M 48.234375 -26.761719 L 21.472656 -26.761719 L 17.945312 0 L 44.707031 0 Z M 48.234375 -26.761719 "/></g></g></g></svg>